<svg xmlns="http://www.w3.org/2000/svg" viewBox="0 0 186 64" fill="none" role="img" aria-labelledby="title desc">
  <title id="title">Mira</title>
  <desc id="desc">The Mira wordmark with an open M and coral folded cursor edge.</desc>
  <path d="M11 51V14l19 24 19-24v37" stroke="#172033" stroke-width="6.8" stroke-linecap="round" stroke-linejoin="round"/>
  <path d="M52 17l8-6v42l-8-6" stroke="#D75D50" stroke-width="5.8" stroke-linecap="round" stroke-linejoin="round"/>
  <path d="M89 21v24" stroke="#172033" stroke-width="5.8" stroke-linecap="round"/>
  <path d="M101 45V22.5" stroke="#172033" stroke-width="5.8" stroke-linecap="round"/>
  <path d="M102 31.5c2.4-6.7 6.9-10.1 13.5-10.1" stroke="#172033" stroke-width="5.8" stroke-linecap="round"/>
  <path d="M127 33.5c0-7 4.7-12.1 11.3-12.1 4 0 7.3 1.8 9.3 4.7V22.5" stroke="#172033" stroke-width="5.8" stroke-linecap="round" stroke-linejoin="round"/>
  <path d="M147.6 22.5V45" stroke="#172033" stroke-width="5.8" stroke-linecap="round"/>
  <path d="M147.6 33.5c0 7-4.7 12.1-11.3 12.1-6.6 0-11.3-5.1-11.3-12.1" stroke="#172033" stroke-width="5.8" stroke-linecap="round"/>
  <circle cx="89" cy="13.5" r="3.6" fill="#D75D50"/>
</svg>
